<mxfile host="app.diagrams.net" modified="2023-08-28T11:18:15.308Z" agent="Mozilla/5.0 (Macintosh; Intel Mac OS X 10_15_7) AppleWebKit/537.36 (KHTML, like Gecko) Chrome/116.0.0.0 Safari/537.36" etag="TVcpq4slBsvEvfHg2bUE" version="21.6.6" type="github">
  <diagram name="第 1 页" id="4qfFsPyxx4dfJa_MOBMq">
    <mxGraphModel dx="1253" dy="709" grid="0" gridSize="10" guides="1" tooltips="1" connect="1" arrows="1" fold="1" page="1" pageScale="1" pageWidth="827" pageHeight="1169" math="0" shadow="0">
      <root>
        <mxCell id="0" />
        <mxCell id="1" parent="0" />
        <mxCell id="KjEpLJ4TStjCKaL1cNmp-8" style="edgeStyle=orthogonalEdgeStyle;rounded=0;orthogonalLoop=1;jettySize=auto;html=1;entryX=0.5;entryY=0;entryDx=0;entryDy=0;fontFamily=Helvetica;fontSize=12;fontColor=default;" edge="1" parent="1" source="KjEpLJ4TStjCKaL1cNmp-4" target="KjEpLJ4TStjCKaL1cNmp-6">
          <mxGeometry relative="1" as="geometry" />
        </mxCell>
        <mxCell id="KjEpLJ4TStjCKaL1cNmp-14" style="edgeStyle=orthogonalEdgeStyle;rounded=0;orthogonalLoop=1;jettySize=auto;html=1;entryX=0;entryY=0;entryDx=0;entryDy=0;fontFamily=Helvetica;fontSize=12;fontColor=default;exitX=0.75;exitY=1;exitDx=0;exitDy=0;strokeColor=none;" edge="1" parent="1" source="KjEpLJ4TStjCKaL1cNmp-4" target="KjEpLJ4TStjCKaL1cNmp-7">
          <mxGeometry relative="1" as="geometry" />
        </mxCell>
        <mxCell id="KjEpLJ4TStjCKaL1cNmp-4" value="pegasus-biz" style="rounded=1;whiteSpace=wrap;html=1;strokeWidth=2;" vertex="1" parent="1">
          <mxGeometry x="170" y="160" width="120" height="60" as="geometry" />
        </mxCell>
        <mxCell id="KjEpLJ4TStjCKaL1cNmp-9" style="edgeStyle=orthogonalEdgeStyle;rounded=0;orthogonalLoop=1;jettySize=auto;html=1;entryX=0.5;entryY=0;entryDx=0;entryDy=0;fontFamily=Helvetica;fontSize=12;fontColor=default;" edge="1" parent="1" source="KjEpLJ4TStjCKaL1cNmp-5" target="KjEpLJ4TStjCKaL1cNmp-7">
          <mxGeometry relative="1" as="geometry" />
        </mxCell>
        <mxCell id="KjEpLJ4TStjCKaL1cNmp-5" value="Ad-biz" style="rounded=1;whiteSpace=wrap;html=1;strokeWidth=2;" vertex="1" parent="1">
          <mxGeometry x="354" y="160" width="120" height="60" as="geometry" />
        </mxCell>
        <mxCell id="KjEpLJ4TStjCKaL1cNmp-11" style="edgeStyle=orthogonalEdgeStyle;rounded=0;orthogonalLoop=1;jettySize=auto;html=1;entryX=0;entryY=0.5;entryDx=0;entryDy=0;fontFamily=Helvetica;fontSize=12;fontColor=default;strokeColor=#FF3333;" edge="1" parent="1" source="KjEpLJ4TStjCKaL1cNmp-6" target="KjEpLJ4TStjCKaL1cNmp-7">
          <mxGeometry relative="1" as="geometry" />
        </mxCell>
        <mxCell id="KjEpLJ4TStjCKaL1cNmp-17" value="❌" style="edgeLabel;html=1;align=center;verticalAlign=middle;resizable=0;points=[];fontSize=12;fontFamily=Helvetica;fontColor=default;" vertex="1" connectable="0" parent="KjEpLJ4TStjCKaL1cNmp-11">
          <mxGeometry x="-0.0625" y="4" relative="1" as="geometry">
            <mxPoint as="offset" />
          </mxGeometry>
        </mxCell>
        <mxCell id="KjEpLJ4TStjCKaL1cNmp-6" value="pegasus-data" style="rounded=1;whiteSpace=wrap;html=1;strokeWidth=2;" vertex="1" parent="1">
          <mxGeometry x="170" y="330" width="120" height="60" as="geometry" />
        </mxCell>
        <mxCell id="KjEpLJ4TStjCKaL1cNmp-7" value="adcommon" style="rounded=1;whiteSpace=wrap;html=1;strokeWidth=2;" vertex="1" parent="1">
          <mxGeometry x="354" y="330" width="120" height="60" as="geometry" />
        </mxCell>
        <mxCell id="KjEpLJ4TStjCKaL1cNmp-10" value="" style="endArrow=classic;html=1;rounded=0;fontFamily=Helvetica;fontSize=12;fontColor=default;exitX=0.25;exitY=1;exitDx=0;exitDy=0;entryX=0.75;entryY=0;entryDx=0;entryDy=0;" edge="1" parent="1" source="KjEpLJ4TStjCKaL1cNmp-5" target="KjEpLJ4TStjCKaL1cNmp-6">
          <mxGeometry width="50" height="50" relative="1" as="geometry">
            <mxPoint x="40" y="410" as="sourcePoint" />
            <mxPoint x="90" y="360" as="targetPoint" />
          </mxGeometry>
        </mxCell>
        <mxCell id="KjEpLJ4TStjCKaL1cNmp-13" value="构造 Adbanneritem&amp;lt;&amp;nbsp;BannerItemData &amp;gt;" style="text;html=1;strokeColor=#82b366;fillColor=#d5e8d4;align=center;verticalAlign=middle;whiteSpace=wrap;rounded=0;fontSize=12;fontFamily=Helvetica;" vertex="1" parent="1">
          <mxGeometry x="500" y="335" width="240" height="50" as="geometry" />
        </mxCell>
        <mxCell id="KjEpLJ4TStjCKaL1cNmp-15" value="" style="endArrow=classic;html=1;rounded=0;fontFamily=Helvetica;fontSize=12;fontColor=default;exitX=0.75;exitY=1;exitDx=0;exitDy=0;entryX=0.25;entryY=0;entryDx=0;entryDy=0;" edge="1" parent="1" source="KjEpLJ4TStjCKaL1cNmp-4" target="KjEpLJ4TStjCKaL1cNmp-7">
          <mxGeometry width="50" height="50" relative="1" as="geometry">
            <mxPoint x="90" y="370" as="sourcePoint" />
            <mxPoint x="140" y="320" as="targetPoint" />
          </mxGeometry>
        </mxCell>
        <mxCell id="KjEpLJ4TStjCKaL1cNmp-16" value="BannerItemData" style="text;html=1;strokeColor=none;fillColor=none;align=center;verticalAlign=middle;whiteSpace=wrap;rounded=0;fontSize=12;fontFamily=Helvetica;fontColor=default;" vertex="1" parent="1">
          <mxGeometry x="70" y="345" width="100" height="30" as="geometry" />
        </mxCell>
        <mxCell id="KjEpLJ4TStjCKaL1cNmp-18" value="" style="endArrow=classic;html=1;rounded=0;fontFamily=Helvetica;fontSize=12;fontColor=default;exitX=0;exitY=0.75;exitDx=0;exitDy=0;entryX=1;entryY=0.75;entryDx=0;entryDy=0;" edge="1" parent="1" source="KjEpLJ4TStjCKaL1cNmp-7" target="KjEpLJ4TStjCKaL1cNmp-6">
          <mxGeometry width="50" height="50" relative="1" as="geometry">
            <mxPoint x="170" y="560" as="sourcePoint" />
            <mxPoint x="220" y="510" as="targetPoint" />
          </mxGeometry>
        </mxCell>
        <mxCell id="KjEpLJ4TStjCKaL1cNmp-21" value="" style="endArrow=none;html=1;fontFamily=Helvetica;fontSize=12;fontColor=default;curved=1;startArrow=classic;startFill=1;" edge="1" parent="1">
          <mxGeometry width="50" height="50" relative="1" as="geometry">
            <mxPoint x="270" y="150" as="sourcePoint" />
            <mxPoint x="700" y="330" as="targetPoint" />
            <Array as="points">
              <mxPoint x="640" y="30" />
            </Array>
          </mxGeometry>
        </mxCell>
        <mxCell id="KjEpLJ4TStjCKaL1cNmp-23" value="&lt;h1&gt;Heading&lt;/h1&gt;&lt;p&gt;解析时需要&lt;/p&gt;pegasusdata依赖 adcommon&lt;span style=&quot;background-color: initial;&quot;&gt;.&lt;br&gt;&lt;/span&gt;&lt;br&gt;构造 AdBannerItem 时&lt;br&gt;adcommon 依赖 pegasusdata&lt;br&gt;&lt;p&gt;&lt;br&gt;&lt;/p&gt;" style="text;html=1;strokeColor=#d79b00;fillColor=#ffe6cc;spacing=5;spacingTop=-20;whiteSpace=wrap;overflow=hidden;rounded=0;fontSize=12;fontFamily=Helvetica;" vertex="1" parent="1">
          <mxGeometry x="160" y="455" width="230" height="155" as="geometry" />
        </mxCell>
      </root>
    </mxGraphModel>
  </diagram>
</mxfile>
